M48
; DRILL file {KiCad (5.1.9)-1} date 08/20/21 11:03:31
; FORMAT={-:-/ absolute / inch / decimal}
; #@! TF.CreationDate,2021-08-20T11:03:31-07:00
; #@! TF.GenerationSoftware,Kicad,Pcbnew,(5.1.9)-1
; #@! TF.FileFunction,NonPlated,1,2,NPTH
FMAT,2
INCH
T1C0.0689
T2C0.1200
T3C0.1570
%
G90
G05
T1
X1.5813Y-1.3125
X1.5813Y-2.0625
X1.9563Y-2.8125
X1.9813Y-1.3125
X1.9813Y-2.0625
X2.3313Y-1.3125
X2.3313Y-2.0625
X2.3563Y-2.8125
X2.7063Y-2.8125
X2.7313Y-1.3125
X2.7313Y-2.0625
X2.9875Y-3.5625
X3.0813Y-1.3125
X3.0813Y-2.0625
X3.1063Y-2.8125
X3.3875Y-3.5625
X3.4563Y-2.8125
X3.4813Y-1.3125
X3.4813Y-2.0625
X3.8313Y-1.3125
X3.8313Y-2.0625
X3.8313Y-3.5625
X3.8563Y-2.8125
X3.925Y-3.5625
X4.2063Y-2.8125
X4.2313Y-1.3125
X4.2313Y-2.0625
X4.2313Y-3.5625
X4.325Y-3.5625
X4.5813Y-1.3125
X4.5813Y-2.0625
X4.5813Y-3.5625
X4.6063Y-2.8125
X4.9563Y-2.8125
X4.9563Y-3.5625
X4.9813Y-1.3125
X4.9813Y-2.0625
X4.9813Y-3.5625
X5.05Y-3.5625
X5.3313Y-1.3125
X5.3313Y-2.0625
X5.3563Y-2.8125
X5.3563Y-3.5625
X5.45Y-3.5625
X5.7063Y-2.8125
X5.7063Y-3.5625
X5.7313Y-1.3125
X5.7313Y-2.0625
X6.0813Y-1.3125
X6.0813Y-2.0625
X6.1063Y-2.8125
X6.1063Y-3.5625
X6.3625Y-3.5625
X6.4563Y-2.8125
X6.4563Y-3.5625
X6.4813Y-1.3125
X6.4813Y-2.0625
X6.7625Y-3.5625
X6.8313Y-1.3125
X6.8313Y-2.0625
X6.8313Y-3.5625
X6.8563Y-2.8125
X6.8563Y-3.5625
X7.2063Y-2.8125
X7.2313Y-1.3125
X7.2313Y-2.0625
X7.2313Y-3.5625
X7.4875Y-3.5625
X7.5813Y-1.3125
X7.5813Y-2.0625
X7.5813Y-3.5625
X7.6063Y-2.8125
X7.8875Y-3.5625
X7.9563Y-2.8125
X7.9813Y-1.3125
X7.9813Y-2.0625
X7.9813Y-3.5625
X8.3313Y-1.3125
X8.3313Y-2.0625
X8.3563Y-2.8125
X8.425Y-3.5625
X8.7063Y-2.8125
X8.7313Y-1.3125
X8.7313Y-2.0625
X8.825Y-3.5625
X9.0813Y-1.3125
X9.0813Y-2.0625
X9.1063Y-2.8125
X9.4563Y-2.8125
X9.4813Y-1.3125
X9.4813Y-2.0625
X9.8313Y-1.3125
X9.8313Y-2.0625
X9.8563Y-2.8125
X10.2313Y-1.3125
X10.2313Y-2.0625
T2
X4.0313Y-3.8375
X4.0313Y-3.8375
X4.6875Y-3.8375
X5.5313Y-3.8375
X5.625Y-3.8375
X6.1875Y-3.8375
X6.2813Y-3.8375
X7.125Y-3.8375
X7.7813Y-3.8375
X7.7813Y-3.8375
T3
X1.7813Y-1.3125
X1.7813Y-2.0625
X2.1563Y-2.8125
X2.5313Y-1.3125
X2.5313Y-2.0625
X2.9063Y-2.8125
X3.1875Y-3.5625
X3.2813Y-1.3125
X3.2813Y-2.0625
X3.6563Y-2.8125
X4.0313Y-1.3125
X4.0313Y-2.0625
X4.0313Y-3.5625
X4.0313Y-3.2375
X4.0313Y-3.2375
X4.125Y-3.5625
X4.4063Y-2.8125
X4.6875Y-3.2375
X4.7813Y-1.3125
X4.7813Y-2.0625
X4.7813Y-3.5625
X5.1563Y-2.8125
X5.1563Y-3.5625
X5.25Y-3.5625
X5.5313Y-3.2375
X5.5313Y-1.3125
X5.5313Y-2.0625
X5.625Y-3.2375
X5.9063Y-2.8125
X5.9063Y-3.5625
X6.1875Y-3.2375
X6.2813Y-1.3125
X6.2813Y-2.0625
X6.2813Y-3.2375
X6.5625Y-3.5625
X6.6563Y-2.8125
X6.6563Y-3.5625
X7.0313Y-1.3125
X7.0313Y-2.0625
X7.0313Y-3.5625
X7.125Y-3.2375
X7.4063Y-2.8125
X7.6875Y-3.5625
X7.7813Y-3.2375
X7.7813Y-3.2375
X7.7813Y-1.3125
X7.7813Y-2.0625
X7.7813Y-3.5625
X8.1563Y-2.8125
X8.5313Y-1.3125
X8.5313Y-2.0625
X8.625Y-3.5625
X8.9063Y-2.8125
X9.2813Y-1.3125
X9.2813Y-2.0625
X9.6563Y-2.8125
X10.0313Y-1.3125
X10.0313Y-2.0625
T0
M30
