%TF.GenerationSoftware,KiCad,Pcbnew,(5.1.9)-1*%
%TF.CreationDate,2021-08-20T11:44:51-07:00*%
%TF.ProjectId,Ingot,496e676f-742e-46b6-9963-61645f706362,rev?*%
%TF.SameCoordinates,Original*%
%TF.FileFunction,Paste,Bot*%
%TF.FilePolarity,Positive*%
%FSLAX46Y46*%
G04 Gerber Fmt 4.6, Leading zero omitted, Abs format (unit mm)*
G04 Created by KiCad (PCBNEW (5.1.9)-1) date 2021-08-20 11:44:51*
%MOMM*%
%LPD*%
G01*
G04 APERTURE LIST*
%ADD10R,1.800000X1.100000*%
%ADD11R,1.200000X1.600000*%
G04 APERTURE END LIST*
D10*
%TO.C,RESET1*%
X95969140Y-41012680D03*
X89769140Y-41012680D03*
X95969140Y-44712680D03*
X89769140Y-44712680D03*
%TD*%
D11*
%TO.C,D41*%
X227410330Y-90697250D03*
X227410330Y-87897250D03*
%TD*%
%TO.C,D40*%
X208360250Y-90697250D03*
X208360250Y-87897250D03*
%TD*%
%TO.C,D39*%
X205978990Y-94269140D03*
X205978990Y-91469140D03*
%TD*%
%TO.C,D38*%
X94059770Y-94269140D03*
X94059770Y-91469140D03*
%TD*%
%TO.C,D37*%
X91678510Y-90697250D03*
X91678510Y-87897250D03*
%TD*%
%TO.C,D36*%
X72628430Y-90697250D03*
X72628430Y-87897250D03*
%TD*%
%TO.C,D35*%
X236935370Y-71647170D03*
X236935370Y-68847170D03*
%TD*%
%TO.C,D34*%
X234554110Y-71647170D03*
X234554110Y-68847170D03*
%TD*%
%TO.C,D33*%
X216694660Y-71647170D03*
X216694660Y-68847170D03*
%TD*%
%TO.C,D32*%
X197644580Y-71647170D03*
X197644580Y-68847170D03*
%TD*%
%TO.C,D31*%
X178594500Y-71647170D03*
X178594500Y-68847170D03*
%TD*%
%TO.C,D30*%
X159544420Y-71647170D03*
X159544420Y-68847170D03*
%TD*%
%TO.C,D29*%
X140494340Y-71647170D03*
X140494340Y-68847170D03*
%TD*%
%TO.C,D28*%
X121444260Y-71647170D03*
X121444260Y-68847170D03*
%TD*%
%TO.C,D27*%
X102394180Y-71647170D03*
X102394180Y-68847170D03*
%TD*%
%TO.C,D26*%
X83344100Y-71647170D03*
X83344100Y-68847170D03*
%TD*%
%TO.C,D25*%
X46434570Y-71647170D03*
X46434570Y-68847170D03*
%TD*%
%TO.C,D24*%
X246460410Y-52597090D03*
X246460410Y-49797090D03*
%TD*%
%TO.C,D23*%
X244079150Y-52597090D03*
X244079150Y-49797090D03*
%TD*%
%TO.C,D22*%
X226219700Y-52597090D03*
X226219700Y-49797090D03*
%TD*%
%TO.C,D21*%
X207169620Y-52597090D03*
X207169620Y-49797090D03*
%TD*%
%TO.C,D20*%
X188119540Y-52597090D03*
X188119540Y-49797090D03*
%TD*%
%TO.C,D19*%
X169069460Y-52597090D03*
X169069460Y-49797090D03*
%TD*%
%TO.C,D18*%
X132159930Y-52597090D03*
X132159930Y-49797090D03*
%TD*%
%TO.C,D17*%
X129778670Y-52597090D03*
X129778670Y-49797090D03*
%TD*%
%TO.C,D16*%
X111919220Y-52597090D03*
X111919220Y-49797090D03*
%TD*%
%TO.C,D15*%
X92869140Y-52597090D03*
X92869140Y-49797090D03*
%TD*%
%TO.C,D14*%
X53578350Y-52597090D03*
X53578350Y-49797090D03*
%TD*%
%TO.C,D13*%
X36909530Y-52597090D03*
X36909530Y-49797090D03*
%TD*%
%TO.C,D12*%
X246460410Y-33547010D03*
X246460410Y-30747010D03*
%TD*%
%TO.C,D11*%
X244079150Y-33547010D03*
X244079150Y-30747010D03*
%TD*%
%TO.C,D10*%
X226219700Y-33547010D03*
X226219700Y-30747010D03*
%TD*%
%TO.C,D9*%
X207169620Y-33547010D03*
X207169620Y-30747010D03*
%TD*%
%TO.C,D8*%
X188119540Y-33547010D03*
X188119540Y-30747010D03*
%TD*%
%TO.C,D7*%
X169069460Y-33547010D03*
X169069460Y-30747010D03*
%TD*%
%TO.C,D6*%
X132159930Y-33547010D03*
X132159930Y-30747010D03*
%TD*%
%TO.C,D5*%
X129778670Y-33547010D03*
X129778670Y-30747010D03*
%TD*%
%TO.C,D4*%
X111919220Y-33547010D03*
X111919220Y-30747010D03*
%TD*%
%TO.C,D3*%
X92869140Y-33547010D03*
X92869140Y-30747010D03*
%TD*%
%TO.C,D2*%
X53578350Y-33547010D03*
X53578350Y-30747010D03*
%TD*%
%TO.C,D1*%
X36909530Y-33547010D03*
X36909530Y-30747010D03*
%TD*%
M02*
