M48
; DRILL file {KiCad (5.1.9)-1} date 08/20/21 11:44:52
; FORMAT={-:-/ absolute / inch / decimal}
; #@! TF.CreationDate,2021-08-20T11:44:52-07:00
; #@! TF.GenerationSoftware,Kicad,Pcbnew,(5.1.9)-1
; #@! TF.FileFunction,Plated,1,2,PTH
FMAT,2
INCH
T1C0.0157
T2C0.0394
T3C0.0430
T4C0.0579
T5C0.0591
%
G90
G05
T1
X1.6313Y-1.5341
X2.3813Y-1.5899
X2.8323Y-2.3386
X2.8323Y-2.378
X2.8323Y-2.4173
X3.0134Y-2.337
X3.0134Y-2.3764
X3.0705Y-2.3674
X3.1784Y-2.3846
X3.9451Y-2.4013
X4.7138Y-2.42
X5.4805Y-2.4368
X6.2492Y-2.4555
X7.016Y-2.4722
X7.7847Y-2.4909
X8.5494Y-2.5057
X9.3201Y-2.5263
T2
X1.4531Y-1.1121
X1.4531Y-1.4192
X1.4531Y-1.8621
X1.4531Y-2.1692
X1.8281Y-2.6121
X1.8281Y-2.9192
X2.1094Y-1.1121
X2.1094Y-1.4192
X2.1094Y-1.8621
X2.1094Y-2.1692
X2.8594Y-3.3621
X2.8594Y-3.6692
X3.2813Y-2.6121
X3.2813Y-2.9192
X3.6094Y-3.3621
X3.6094Y-3.6692
X3.6563Y-1.1121
X3.6563Y-1.4192
X3.6563Y-1.8621
X3.6563Y-2.1692
X3.7031Y-3.5027
X3.7031Y-3.8098
X4.0313Y-2.6121
X4.0313Y-2.9192
X4.4063Y-1.1121
X4.4063Y-1.4192
X4.4063Y-1.8621
X4.4063Y-2.1692
X4.7813Y-2.6121
X4.7813Y-2.9192
X5.1094Y-1.1121
X5.1094Y-1.4192
X5.1094Y-1.8621
X5.1094Y-2.1692
X5.2031Y-1.1121
X5.2031Y-1.4192
X5.2031Y-1.8621
X5.2031Y-2.1692
X5.5313Y-2.6121
X5.5313Y-2.9192
X5.8078Y-1.4119
X5.8078Y-1.9828
X5.9063Y-1.9828
X6.0047Y-1.4119
X6.0047Y-1.9828
X6.2813Y-2.6121
X6.2813Y-2.9192
X6.6563Y-1.1121
X6.6563Y-1.4192
X6.6563Y-1.8621
X6.6563Y-2.1692
X7.0313Y-2.6121
X7.0313Y-2.9192
X7.4063Y-1.1121
X7.4063Y-1.4192
X7.4063Y-1.8621
X7.4063Y-2.1692
X7.7813Y-2.6121
X7.7813Y-2.9192
X8.1094Y-3.5027
X8.1094Y-3.8098
X8.1563Y-1.1121
X8.1563Y-1.4192
X8.1563Y-1.8621
X8.1563Y-2.1692
X8.2032Y-3.3621
X8.2032Y-3.6692
X8.5313Y-2.6121
X8.5313Y-2.9192
X8.9063Y-1.1121
X8.9063Y-1.4192
X8.9063Y-1.8621
X8.9063Y-2.1692
X8.9532Y-3.3621
X8.9532Y-3.6692
X9.2344Y-2.6121
X9.2344Y-2.9192
X9.3282Y-2.6121
X9.3282Y-2.9192
X9.6094Y-1.1121
X9.6094Y-1.4192
X9.6094Y-1.8621
X9.6094Y-2.1692
X9.7032Y-1.1121
X9.7032Y-1.4192
X9.7032Y-1.8621
X9.7032Y-2.1692
T3
X2.2313Y-1.0906
X2.2313Y-1.1906
X2.2313Y-1.2906
X2.2313Y-1.3906
X2.2313Y-1.4906
X2.2313Y-1.5906
X2.2313Y-1.6906
X2.2313Y-1.7906
X2.2313Y-1.8906
X2.2313Y-1.9906
X2.2313Y-2.0906
X2.2313Y-2.1906
X2.8313Y-1.0906
X2.8313Y-1.1906
X2.8313Y-1.2906
X2.8313Y-1.3906
X2.8313Y-1.4906
X2.8313Y-1.5906
X2.8313Y-1.6906
X2.8313Y-1.7906
X2.8313Y-1.8906
X2.8313Y-1.9906
X2.8313Y-2.0906
X2.8313Y-2.1906
T4
X1.6313Y-1.2125
X1.6313Y-1.9625
X1.8813Y-1.1125
X1.8813Y-1.8625
X2.0063Y-2.7125
X2.2563Y-2.6125
X2.3813Y-1.2125
X2.3813Y-1.9625
X2.6313Y-1.1125
X2.6313Y-1.8625
X2.7563Y-2.7125
X3.0063Y-2.6125
X3.0375Y-3.4625
X3.1313Y-1.2125
X3.1313Y-1.9625
X3.2875Y-3.3625
X3.3813Y-1.1125
X3.3813Y-1.8625
X3.5063Y-2.7125
X3.7563Y-2.6125
X3.8813Y-1.2125
X3.8813Y-1.9625
X3.8813Y-3.4625
X3.975Y-3.4625
X4.1313Y-1.1125
X4.1313Y-1.8625
X4.1313Y-3.3625
X4.225Y-3.3625
X4.2563Y-2.7125
X4.5063Y-2.6125
X4.6313Y-1.2125
X4.6313Y-1.9625
X4.6313Y-3.4625
X4.8813Y-1.1125
X4.8813Y-1.8625
X4.8813Y-3.3625
X5.0063Y-2.7125
X5.0063Y-3.4625
X5.1Y-3.4625
X5.2563Y-2.6125
X5.2563Y-3.3625
X5.35Y-3.3625
X5.3813Y-1.2125
X5.3813Y-1.9625
X5.6313Y-1.1125
X5.6313Y-1.8625
X5.7563Y-2.7125
X5.7563Y-3.4625
X6.0063Y-2.6125
X6.0063Y-3.3625
X6.1313Y-1.2125
X6.1313Y-1.9625
X6.3813Y-1.1125
X6.3813Y-1.8625
X6.4125Y-3.4625
X6.5063Y-2.7125
X6.5063Y-3.4625
X6.6625Y-3.3625
X6.7563Y-2.6125
X6.7563Y-3.3625
X6.8813Y-1.2125
X6.8813Y-1.9625
X6.8813Y-3.4625
X7.1313Y-1.1125
X7.1313Y-1.8625
X7.1313Y-3.3625
X7.2563Y-2.7125
X7.5063Y-2.6125
X7.5375Y-3.4625
X7.6313Y-1.2125
X7.6313Y-1.9625
X7.6313Y-3.4625
X7.7875Y-3.3625
X7.8813Y-1.1125
X7.8813Y-1.8625
X7.8813Y-3.3625
X8.0063Y-2.7125
X8.2563Y-2.6125
X8.3813Y-1.2125
X8.3813Y-1.9625
X8.475Y-3.4625
X8.6313Y-1.1125
X8.6313Y-1.8625
X8.725Y-3.3625
X8.7563Y-2.7125
X9.0063Y-2.6125
X9.1313Y-1.2125
X9.1313Y-1.9625
X9.3813Y-1.1125
X9.3813Y-1.8625
X9.5063Y-2.7125
X9.7563Y-2.6125
X9.8813Y-1.2125
X9.8813Y-1.9625
X10.1313Y-1.1125
X10.1313Y-1.8625
T5
G00X5.6858Y-1.7131
M15
G01X5.6858Y-1.6619
M16
G05
G00X6.1267Y-1.7131
M15
G01X6.1267Y-1.6619
M16
G05
T0
M30
