%TF.GenerationSoftware,KiCad,Pcbnew,(5.1.9)-1*%
%TF.CreationDate,2021-08-20T11:03:29-07:00*%
%TF.ProjectId,Ingot,496e676f-742e-46b6-9963-61645f706362,rev?*%
%TF.SameCoordinates,Original*%
%TF.FileFunction,Legend,Bot*%
%TF.FilePolarity,Positive*%
%FSLAX46Y46*%
G04 Gerber Fmt 4.6, Leading zero omitted, Abs format (unit mm)*
G04 Created by KiCad (PCBNEW (5.1.9)-1) date 2021-08-20 11:03:29*
%MOMM*%
%LPD*%
G01*
G04 APERTURE LIST*
%ADD10C,0.120000*%
%ADD11C,0.381000*%
%ADD12C,0.150000*%
G04 APERTURE END LIST*
D10*
%TO.C,RESET1*%
X90149140Y-41822680D02*
X90149140Y-43902680D01*
X94319140Y-45582680D02*
X94809140Y-45092680D01*
X95589140Y-41822680D02*
X95589140Y-43902680D01*
X91419140Y-45582680D02*
X90929140Y-45092680D01*
X91419140Y-45582680D02*
X94319140Y-45582680D01*
X91419140Y-40142680D02*
X90929140Y-40632680D01*
X91419140Y-40142680D02*
X94319140Y-40142680D01*
X94319140Y-40142680D02*
X94809140Y-40632680D01*
D11*
%TO.C,PM1*%
X57944020Y-28972050D02*
X55404020Y-28972050D01*
X57944020Y-26432050D02*
X57944020Y-28972050D01*
D12*
G36*
X70338655Y-32721080D02*
G01*
X70338655Y-32821080D01*
X70438655Y-32821080D01*
X70438655Y-32721080D01*
X70338655Y-32721080D01*
G37*
X70338655Y-32721080D02*
X70338655Y-32821080D01*
X70438655Y-32821080D01*
X70438655Y-32721080D01*
X70338655Y-32721080D01*
G36*
X70538655Y-32321080D02*
G01*
X70538655Y-33121080D01*
X70638655Y-33121080D01*
X70638655Y-32321080D01*
X70538655Y-32321080D01*
G37*
X70538655Y-32321080D02*
X70538655Y-33121080D01*
X70638655Y-33121080D01*
X70638655Y-32321080D01*
X70538655Y-32321080D01*
G36*
X70138655Y-32921080D02*
G01*
X70138655Y-33121080D01*
X70238655Y-33121080D01*
X70238655Y-32921080D01*
X70138655Y-32921080D01*
G37*
X70138655Y-32921080D02*
X70138655Y-33121080D01*
X70238655Y-33121080D01*
X70238655Y-32921080D01*
X70138655Y-32921080D01*
G36*
X70138655Y-32321080D02*
G01*
X70138655Y-32621080D01*
X70238655Y-32621080D01*
X70238655Y-32321080D01*
X70138655Y-32321080D01*
G37*
X70138655Y-32321080D02*
X70138655Y-32621080D01*
X70238655Y-32621080D01*
X70238655Y-32321080D01*
X70138655Y-32321080D01*
G36*
X70138655Y-32321080D02*
G01*
X70138655Y-32421080D01*
X70638655Y-32421080D01*
X70638655Y-32321080D01*
X70138655Y-32321080D01*
G37*
X70138655Y-32321080D02*
X70138655Y-32421080D01*
X70638655Y-32421080D01*
X70638655Y-32321080D01*
X70138655Y-32321080D01*
D11*
X73184020Y-56912050D02*
X73184020Y-23892050D01*
X55404020Y-56912050D02*
X73184020Y-56912050D01*
X55404020Y-23892050D02*
X55404020Y-56912050D01*
X73184020Y-23892050D02*
X55404020Y-23892050D01*
X57944020Y-26432050D02*
X55404020Y-26432050D01*
D12*
X69867353Y-33085859D02*
X69753067Y-33123954D01*
X69562591Y-33123954D01*
X69486400Y-33085859D01*
X69448305Y-33047764D01*
X69410210Y-32971573D01*
X69410210Y-32895383D01*
X69448305Y-32819192D01*
X69486400Y-32781097D01*
X69562591Y-32743002D01*
X69714972Y-32704907D01*
X69791162Y-32666811D01*
X69829258Y-32628716D01*
X69867353Y-32552526D01*
X69867353Y-32476335D01*
X69829258Y-32400145D01*
X69791162Y-32362050D01*
X69714972Y-32323954D01*
X69524496Y-32323954D01*
X69410210Y-32362050D01*
X69181639Y-32323954D02*
X68724496Y-32323954D01*
X68953067Y-33123954D02*
X68953067Y-32323954D01*
X62912624Y-27263954D02*
X62455481Y-27263954D01*
X62684052Y-28063954D02*
X62684052Y-27263954D01*
X62265005Y-27263954D02*
X61731671Y-28063954D01*
X61731671Y-27263954D02*
X62265005Y-28063954D01*
X61274528Y-27263954D02*
X61198338Y-27263954D01*
X61122148Y-27302050D01*
X61084052Y-27340145D01*
X61045957Y-27416335D01*
X61007862Y-27568716D01*
X61007862Y-27759192D01*
X61045957Y-27911573D01*
X61084052Y-27987764D01*
X61122148Y-28025859D01*
X61198338Y-28063954D01*
X61274528Y-28063954D01*
X61350719Y-28025859D01*
X61388814Y-27987764D01*
X61426909Y-27911573D01*
X61465005Y-27759192D01*
X61465005Y-27568716D01*
X61426909Y-27416335D01*
X61388814Y-27340145D01*
X61350719Y-27302050D01*
X61274528Y-27263954D01*
X60093576Y-27225859D02*
X60779290Y-28254430D01*
X59826909Y-28063954D02*
X59826909Y-27263954D01*
X59636433Y-27263954D01*
X59522148Y-27302050D01*
X59445957Y-27378240D01*
X59407862Y-27454430D01*
X59369767Y-27606811D01*
X59369767Y-27721097D01*
X59407862Y-27873478D01*
X59445957Y-27949669D01*
X59522148Y-28025859D01*
X59636433Y-28063954D01*
X59826909Y-28063954D01*
X59103100Y-27263954D02*
X58607862Y-27263954D01*
X58874528Y-27568716D01*
X58760243Y-27568716D01*
X58684052Y-27606811D01*
X58645957Y-27644907D01*
X58607862Y-27721097D01*
X58607862Y-27911573D01*
X58645957Y-27987764D01*
X58684052Y-28025859D01*
X58760243Y-28063954D01*
X58988814Y-28063954D01*
X59065005Y-28025859D01*
X59103100Y-27987764D01*
X70078829Y-53044907D02*
X69964543Y-53083002D01*
X69926448Y-53121097D01*
X69888353Y-53197288D01*
X69888353Y-53311573D01*
X69926448Y-53387764D01*
X69964543Y-53425859D01*
X70040734Y-53463954D01*
X70345496Y-53463954D01*
X70345496Y-52663954D01*
X70078829Y-52663954D01*
X70002639Y-52702050D01*
X69964543Y-52740145D01*
X69926448Y-52816335D01*
X69926448Y-52892526D01*
X69964543Y-52968716D01*
X70002639Y-53006811D01*
X70078829Y-53044907D01*
X70345496Y-53044907D01*
X69583591Y-52740145D02*
X69545496Y-52702050D01*
X69469305Y-52663954D01*
X69278829Y-52663954D01*
X69202639Y-52702050D01*
X69164543Y-52740145D01*
X69126448Y-52816335D01*
X69126448Y-52892526D01*
X69164543Y-53006811D01*
X69621686Y-53463954D01*
X69126448Y-53463954D01*
X70021686Y-45424907D02*
X70288353Y-45424907D01*
X70288353Y-45843954D02*
X70288353Y-45043954D01*
X69907400Y-45043954D01*
X69678829Y-45043954D02*
X69145496Y-45043954D01*
X69488353Y-45843954D01*
X70021686Y-42884907D02*
X70288353Y-42884907D01*
X70288353Y-43303954D02*
X70288353Y-42503954D01*
X69907400Y-42503954D01*
X69259781Y-42503954D02*
X69412162Y-42503954D01*
X69488353Y-42542050D01*
X69526448Y-42580145D01*
X69602639Y-42694430D01*
X69640734Y-42846811D01*
X69640734Y-43151573D01*
X69602639Y-43227764D01*
X69564543Y-43265859D01*
X69488353Y-43303954D01*
X69335972Y-43303954D01*
X69259781Y-43265859D01*
X69221686Y-43227764D01*
X69183591Y-43151573D01*
X69183591Y-42961097D01*
X69221686Y-42884907D01*
X69259781Y-42846811D01*
X69335972Y-42808716D01*
X69488353Y-42808716D01*
X69564543Y-42846811D01*
X69602639Y-42884907D01*
X69640734Y-42961097D01*
X70021686Y-40344907D02*
X70288353Y-40344907D01*
X70288353Y-40763954D02*
X70288353Y-39963954D01*
X69907400Y-39963954D01*
X69221686Y-39963954D02*
X69602639Y-39963954D01*
X69640734Y-40344907D01*
X69602639Y-40306811D01*
X69526448Y-40268716D01*
X69335972Y-40268716D01*
X69259781Y-40306811D01*
X69221686Y-40344907D01*
X69183591Y-40421097D01*
X69183591Y-40611573D01*
X69221686Y-40687764D01*
X69259781Y-40725859D01*
X69335972Y-40763954D01*
X69526448Y-40763954D01*
X69602639Y-40725859D01*
X69640734Y-40687764D01*
X70307400Y-28063954D02*
X70574067Y-27683002D01*
X70764543Y-28063954D02*
X70764543Y-27263954D01*
X70459781Y-27263954D01*
X70383591Y-27302050D01*
X70345496Y-27340145D01*
X70307400Y-27416335D01*
X70307400Y-27530621D01*
X70345496Y-27606811D01*
X70383591Y-27644907D01*
X70459781Y-27683002D01*
X70764543Y-27683002D01*
X70002639Y-27835383D02*
X69621686Y-27835383D01*
X70078829Y-28063954D02*
X69812162Y-27263954D01*
X69545496Y-28063954D01*
X69355020Y-27263954D02*
X69164543Y-28063954D01*
X69012162Y-27492526D01*
X68859781Y-28063954D01*
X68669305Y-27263954D01*
X70364543Y-29842050D02*
X70440734Y-29803954D01*
X70555020Y-29803954D01*
X70669305Y-29842050D01*
X70745496Y-29918240D01*
X70783591Y-29994430D01*
X70821686Y-30146811D01*
X70821686Y-30261097D01*
X70783591Y-30413478D01*
X70745496Y-30489669D01*
X70669305Y-30565859D01*
X70555020Y-30603954D01*
X70478829Y-30603954D01*
X70364543Y-30565859D01*
X70326448Y-30527764D01*
X70326448Y-30261097D01*
X70478829Y-30261097D01*
X69983591Y-30603954D02*
X69983591Y-29803954D01*
X69526448Y-30603954D01*
X69526448Y-29803954D01*
X69145496Y-30603954D02*
X69145496Y-29803954D01*
X68955020Y-29803954D01*
X68840734Y-29842050D01*
X68764543Y-29918240D01*
X68726448Y-29994430D01*
X68688353Y-30146811D01*
X68688353Y-30261097D01*
X68726448Y-30413478D01*
X68764543Y-30489669D01*
X68840734Y-30565859D01*
X68955020Y-30603954D01*
X69145496Y-30603954D01*
X70821686Y-34883954D02*
X70555020Y-35683954D01*
X70288353Y-34883954D01*
X69564543Y-35607764D02*
X69602639Y-35645859D01*
X69716924Y-35683954D01*
X69793115Y-35683954D01*
X69907400Y-35645859D01*
X69983591Y-35569669D01*
X70021686Y-35493478D01*
X70059781Y-35341097D01*
X70059781Y-35226811D01*
X70021686Y-35074430D01*
X69983591Y-34998240D01*
X69907400Y-34922050D01*
X69793115Y-34883954D01*
X69716924Y-34883954D01*
X69602639Y-34922050D01*
X69564543Y-34960145D01*
X68764543Y-35607764D02*
X68802639Y-35645859D01*
X68916924Y-35683954D01*
X68993115Y-35683954D01*
X69107400Y-35645859D01*
X69183591Y-35569669D01*
X69221686Y-35493478D01*
X69259781Y-35341097D01*
X69259781Y-35226811D01*
X69221686Y-35074430D01*
X69183591Y-34998240D01*
X69107400Y-34922050D01*
X68993115Y-34883954D01*
X68916924Y-34883954D01*
X68802639Y-34922050D01*
X68764543Y-34960145D01*
X70021686Y-37804907D02*
X70288353Y-37804907D01*
X70288353Y-38223954D02*
X70288353Y-37423954D01*
X69907400Y-37423954D01*
X69259781Y-37690621D02*
X69259781Y-38223954D01*
X69450258Y-37385859D02*
X69640734Y-37957288D01*
X69145496Y-37957288D01*
X70078829Y-47964907D02*
X69964543Y-48003002D01*
X69926448Y-48041097D01*
X69888353Y-48117288D01*
X69888353Y-48231573D01*
X69926448Y-48307764D01*
X69964543Y-48345859D01*
X70040734Y-48383954D01*
X70345496Y-48383954D01*
X70345496Y-47583954D01*
X70078829Y-47583954D01*
X70002639Y-47622050D01*
X69964543Y-47660145D01*
X69926448Y-47736335D01*
X69926448Y-47812526D01*
X69964543Y-47888716D01*
X70002639Y-47926811D01*
X70078829Y-47964907D01*
X70345496Y-47964907D01*
X69126448Y-48383954D02*
X69583591Y-48383954D01*
X69355020Y-48383954D02*
X69355020Y-47583954D01*
X69431210Y-47698240D01*
X69507400Y-47774430D01*
X69583591Y-47812526D01*
X70078829Y-50504907D02*
X69964543Y-50543002D01*
X69926448Y-50581097D01*
X69888353Y-50657288D01*
X69888353Y-50771573D01*
X69926448Y-50847764D01*
X69964543Y-50885859D01*
X70040734Y-50923954D01*
X70345496Y-50923954D01*
X70345496Y-50123954D01*
X70078829Y-50123954D01*
X70002639Y-50162050D01*
X69964543Y-50200145D01*
X69926448Y-50276335D01*
X69926448Y-50352526D01*
X69964543Y-50428716D01*
X70002639Y-50466811D01*
X70078829Y-50504907D01*
X70345496Y-50504907D01*
X69621686Y-50123954D02*
X69126448Y-50123954D01*
X69393115Y-50428716D01*
X69278829Y-50428716D01*
X69202639Y-50466811D01*
X69164543Y-50504907D01*
X69126448Y-50581097D01*
X69126448Y-50771573D01*
X69164543Y-50847764D01*
X69202639Y-50885859D01*
X69278829Y-50923954D01*
X69507400Y-50923954D01*
X69583591Y-50885859D01*
X69621686Y-50847764D01*
X70078829Y-55584907D02*
X69964543Y-55623002D01*
X69926448Y-55661097D01*
X69888353Y-55737288D01*
X69888353Y-55851573D01*
X69926448Y-55927764D01*
X69964543Y-55965859D01*
X70040734Y-56003954D01*
X70345496Y-56003954D01*
X70345496Y-55203954D01*
X70078829Y-55203954D01*
X70002639Y-55242050D01*
X69964543Y-55280145D01*
X69926448Y-55356335D01*
X69926448Y-55432526D01*
X69964543Y-55508716D01*
X70002639Y-55546811D01*
X70078829Y-55584907D01*
X70345496Y-55584907D01*
X69202639Y-55203954D02*
X69355020Y-55203954D01*
X69431210Y-55242050D01*
X69469305Y-55280145D01*
X69545496Y-55394430D01*
X69583591Y-55546811D01*
X69583591Y-55851573D01*
X69545496Y-55927764D01*
X69507400Y-55965859D01*
X69431210Y-56003954D01*
X69278829Y-56003954D01*
X69202639Y-55965859D01*
X69164543Y-55927764D01*
X69126448Y-55851573D01*
X69126448Y-55661097D01*
X69164543Y-55584907D01*
X69202639Y-55546811D01*
X69278829Y-55508716D01*
X69431210Y-55508716D01*
X69507400Y-55546811D01*
X69545496Y-55584907D01*
X69583591Y-55661097D01*
X59156829Y-55584907D02*
X59042543Y-55623002D01*
X59004448Y-55661097D01*
X58966353Y-55737288D01*
X58966353Y-55851573D01*
X59004448Y-55927764D01*
X59042543Y-55965859D01*
X59118734Y-56003954D01*
X59423496Y-56003954D01*
X59423496Y-55203954D01*
X59156829Y-55203954D01*
X59080639Y-55242050D01*
X59042543Y-55280145D01*
X59004448Y-55356335D01*
X59004448Y-55432526D01*
X59042543Y-55508716D01*
X59080639Y-55546811D01*
X59156829Y-55584907D01*
X59423496Y-55584907D01*
X58242543Y-55203954D02*
X58623496Y-55203954D01*
X58661591Y-55584907D01*
X58623496Y-55546811D01*
X58547305Y-55508716D01*
X58356829Y-55508716D01*
X58280639Y-55546811D01*
X58242543Y-55584907D01*
X58204448Y-55661097D01*
X58204448Y-55851573D01*
X58242543Y-55927764D01*
X58280639Y-55965859D01*
X58356829Y-56003954D01*
X58547305Y-56003954D01*
X58623496Y-55965859D01*
X58661591Y-55927764D01*
X59156829Y-53044907D02*
X59042543Y-53083002D01*
X59004448Y-53121097D01*
X58966353Y-53197288D01*
X58966353Y-53311573D01*
X59004448Y-53387764D01*
X59042543Y-53425859D01*
X59118734Y-53463954D01*
X59423496Y-53463954D01*
X59423496Y-52663954D01*
X59156829Y-52663954D01*
X59080639Y-52702050D01*
X59042543Y-52740145D01*
X59004448Y-52816335D01*
X59004448Y-52892526D01*
X59042543Y-52968716D01*
X59080639Y-53006811D01*
X59156829Y-53044907D01*
X59423496Y-53044907D01*
X58280639Y-52930621D02*
X58280639Y-53463954D01*
X58471115Y-52625859D02*
X58661591Y-53197288D01*
X58166353Y-53197288D01*
X59385400Y-50504907D02*
X59118734Y-50504907D01*
X59004448Y-50923954D02*
X59385400Y-50923954D01*
X59385400Y-50123954D01*
X59004448Y-50123954D01*
X58318734Y-50123954D02*
X58471115Y-50123954D01*
X58547305Y-50162050D01*
X58585400Y-50200145D01*
X58661591Y-50314430D01*
X58699686Y-50466811D01*
X58699686Y-50771573D01*
X58661591Y-50847764D01*
X58623496Y-50885859D01*
X58547305Y-50923954D01*
X58394924Y-50923954D01*
X58318734Y-50885859D01*
X58280639Y-50847764D01*
X58242543Y-50771573D01*
X58242543Y-50581097D01*
X58280639Y-50504907D01*
X58318734Y-50466811D01*
X58394924Y-50428716D01*
X58547305Y-50428716D01*
X58623496Y-50466811D01*
X58661591Y-50504907D01*
X58699686Y-50581097D01*
X59423496Y-48383954D02*
X59423496Y-47583954D01*
X59233020Y-47583954D01*
X59118734Y-47622050D01*
X59042543Y-47698240D01*
X59004448Y-47774430D01*
X58966353Y-47926811D01*
X58966353Y-48041097D01*
X59004448Y-48193478D01*
X59042543Y-48269669D01*
X59118734Y-48345859D01*
X59233020Y-48383954D01*
X59423496Y-48383954D01*
X58699686Y-47583954D02*
X58166353Y-47583954D01*
X58509210Y-48383954D01*
X58966353Y-45767764D02*
X59004448Y-45805859D01*
X59118734Y-45843954D01*
X59194924Y-45843954D01*
X59309210Y-45805859D01*
X59385400Y-45729669D01*
X59423496Y-45653478D01*
X59461591Y-45501097D01*
X59461591Y-45386811D01*
X59423496Y-45234430D01*
X59385400Y-45158240D01*
X59309210Y-45082050D01*
X59194924Y-45043954D01*
X59118734Y-45043954D01*
X59004448Y-45082050D01*
X58966353Y-45120145D01*
X58280639Y-45043954D02*
X58433020Y-45043954D01*
X58509210Y-45082050D01*
X58547305Y-45120145D01*
X58623496Y-45234430D01*
X58661591Y-45386811D01*
X58661591Y-45691573D01*
X58623496Y-45767764D01*
X58585400Y-45805859D01*
X58509210Y-45843954D01*
X58356829Y-45843954D01*
X58280639Y-45805859D01*
X58242543Y-45767764D01*
X58204448Y-45691573D01*
X58204448Y-45501097D01*
X58242543Y-45424907D01*
X58280639Y-45386811D01*
X58356829Y-45348716D01*
X58509210Y-45348716D01*
X58585400Y-45386811D01*
X58623496Y-45424907D01*
X58661591Y-45501097D01*
X59423496Y-43303954D02*
X59423496Y-42503954D01*
X59233020Y-42503954D01*
X59118734Y-42542050D01*
X59042543Y-42618240D01*
X59004448Y-42694430D01*
X58966353Y-42846811D01*
X58966353Y-42961097D01*
X59004448Y-43113478D01*
X59042543Y-43189669D01*
X59118734Y-43265859D01*
X59233020Y-43303954D01*
X59423496Y-43303954D01*
X58280639Y-42770621D02*
X58280639Y-43303954D01*
X58471115Y-42465859D02*
X58661591Y-43037288D01*
X58166353Y-43037288D01*
X59442543Y-32382050D02*
X59518734Y-32343954D01*
X59633020Y-32343954D01*
X59747305Y-32382050D01*
X59823496Y-32458240D01*
X59861591Y-32534430D01*
X59899686Y-32686811D01*
X59899686Y-32801097D01*
X59861591Y-32953478D01*
X59823496Y-33029669D01*
X59747305Y-33105859D01*
X59633020Y-33143954D01*
X59556829Y-33143954D01*
X59442543Y-33105859D01*
X59404448Y-33067764D01*
X59404448Y-32801097D01*
X59556829Y-32801097D01*
X59061591Y-33143954D02*
X59061591Y-32343954D01*
X58604448Y-33143954D01*
X58604448Y-32343954D01*
X58223496Y-33143954D02*
X58223496Y-32343954D01*
X58033020Y-32343954D01*
X57918734Y-32382050D01*
X57842543Y-32458240D01*
X57804448Y-32534430D01*
X57766353Y-32686811D01*
X57766353Y-32801097D01*
X57804448Y-32953478D01*
X57842543Y-33029669D01*
X57918734Y-33105859D01*
X58033020Y-33143954D01*
X58223496Y-33143954D01*
X59442543Y-34922050D02*
X59518734Y-34883954D01*
X59633020Y-34883954D01*
X59747305Y-34922050D01*
X59823496Y-34998240D01*
X59861591Y-35074430D01*
X59899686Y-35226811D01*
X59899686Y-35341097D01*
X59861591Y-35493478D01*
X59823496Y-35569669D01*
X59747305Y-35645859D01*
X59633020Y-35683954D01*
X59556829Y-35683954D01*
X59442543Y-35645859D01*
X59404448Y-35607764D01*
X59404448Y-35341097D01*
X59556829Y-35341097D01*
X59061591Y-35683954D02*
X59061591Y-34883954D01*
X58604448Y-35683954D01*
X58604448Y-34883954D01*
X58223496Y-35683954D02*
X58223496Y-34883954D01*
X58033020Y-34883954D01*
X57918734Y-34922050D01*
X57842543Y-34998240D01*
X57804448Y-35074430D01*
X57766353Y-35226811D01*
X57766353Y-35341097D01*
X57804448Y-35493478D01*
X57842543Y-35569669D01*
X57918734Y-35645859D01*
X58033020Y-35683954D01*
X58223496Y-35683954D01*
X59423496Y-38223954D02*
X59423496Y-37423954D01*
X59233020Y-37423954D01*
X59118734Y-37462050D01*
X59042543Y-37538240D01*
X59004448Y-37614430D01*
X58966353Y-37766811D01*
X58966353Y-37881097D01*
X59004448Y-38033478D01*
X59042543Y-38109669D01*
X59118734Y-38185859D01*
X59233020Y-38223954D01*
X59423496Y-38223954D01*
X58204448Y-38223954D02*
X58661591Y-38223954D01*
X58433020Y-38223954D02*
X58433020Y-37423954D01*
X58509210Y-37538240D01*
X58585400Y-37614430D01*
X58661591Y-37652526D01*
X59423496Y-40763954D02*
X59423496Y-39963954D01*
X59233020Y-39963954D01*
X59118734Y-40002050D01*
X59042543Y-40078240D01*
X59004448Y-40154430D01*
X58966353Y-40306811D01*
X58966353Y-40421097D01*
X59004448Y-40573478D01*
X59042543Y-40649669D01*
X59118734Y-40725859D01*
X59233020Y-40763954D01*
X59423496Y-40763954D01*
X58471115Y-39963954D02*
X58394924Y-39963954D01*
X58318734Y-40002050D01*
X58280639Y-40040145D01*
X58242543Y-40116335D01*
X58204448Y-40268716D01*
X58204448Y-40459192D01*
X58242543Y-40611573D01*
X58280639Y-40687764D01*
X58318734Y-40725859D01*
X58394924Y-40763954D01*
X58471115Y-40763954D01*
X58547305Y-40725859D01*
X58585400Y-40687764D01*
X58623496Y-40611573D01*
X58661591Y-40459192D01*
X58661591Y-40268716D01*
X58623496Y-40116335D01*
X58585400Y-40040145D01*
X58547305Y-40002050D01*
X58471115Y-39963954D01*
X59423496Y-30603954D02*
X59423496Y-29803954D01*
X59233020Y-29803954D01*
X59118734Y-29842050D01*
X59042543Y-29918240D01*
X59004448Y-29994430D01*
X58966353Y-30146811D01*
X58966353Y-30261097D01*
X59004448Y-30413478D01*
X59042543Y-30489669D01*
X59118734Y-30565859D01*
X59233020Y-30603954D01*
X59423496Y-30603954D01*
X58661591Y-29880145D02*
X58623496Y-29842050D01*
X58547305Y-29803954D01*
X58356829Y-29803954D01*
X58280639Y-29842050D01*
X58242543Y-29880145D01*
X58204448Y-29956335D01*
X58204448Y-30032526D01*
X58242543Y-30146811D01*
X58699686Y-30603954D01*
X58204448Y-30603954D01*
%TD*%
M02*
