%TF.GenerationSoftware,KiCad,Pcbnew,(5.1.9)-1*%
%TF.CreationDate,2021-08-20T11:03:29-07:00*%
%TF.ProjectId,Ingot,496e676f-742e-46b6-9963-61645f706362,rev?*%
%TF.SameCoordinates,Original*%
%TF.FileFunction,Soldermask,Top*%
%TF.FilePolarity,Negative*%
%FSLAX46Y46*%
G04 Gerber Fmt 4.6, Leading zero omitted, Abs format (unit mm)*
G04 Created by KiCad (PCBNEW (5.1.9)-1) date 2021-08-20 11:03:29*
%MOMM*%
%LPD*%
G01*
G04 APERTURE LIST*
%ADD10C,3.987800*%
%ADD11C,1.750000*%
%ADD12C,3.048000*%
%ADD13C,1.752600*%
%ADD14R,1.752600X1.752600*%
%ADD15C,2.000000*%
%ADD16R,2.000000X3.200000*%
%ADD17R,2.000000X2.000000*%
%ADD18R,1.600000X1.600000*%
%ADD19C,1.600000*%
G04 APERTURE END LIST*
D10*
%TO.C,MX40-1u1*%
X197644580Y-90487880D03*
D11*
X192564580Y-90487880D03*
X202724580Y-90487880D03*
%TD*%
D10*
%TO.C,MX39-2u1*%
X169069460Y-90487880D03*
D11*
X163989460Y-90487880D03*
X174149460Y-90487880D03*
D12*
X157163210Y-97472880D03*
X180975710Y-97472880D03*
D10*
X157163210Y-82232880D03*
X180975710Y-82232880D03*
%TD*%
%TO.C,MX38-2u1*%
X130969300Y-90487880D03*
D11*
X125889300Y-90487880D03*
X136049300Y-90487880D03*
D12*
X119063050Y-97472880D03*
X142875550Y-97472880D03*
D10*
X119063050Y-82232880D03*
X142875550Y-82232880D03*
%TD*%
%TO.C,MX37-1u1*%
X102394180Y-90487880D03*
D11*
X97314180Y-90487880D03*
X107474180Y-90487880D03*
%TD*%
D10*
%TO.C,MX38-6u1*%
X197644380Y-82232880D03*
X102394380Y-82232880D03*
D12*
X197644380Y-97472880D03*
X102394380Y-97472880D03*
D11*
X155099380Y-90487880D03*
X144939380Y-90487880D03*
D10*
X150019380Y-90487880D03*
%TD*%
%TO.C,MX39-3u1*%
X178594500Y-90487880D03*
D11*
X173514500Y-90487880D03*
X183674500Y-90487880D03*
D12*
X159544500Y-97472880D03*
X197644500Y-97472880D03*
D10*
X159544500Y-82232880D03*
X197644500Y-82232880D03*
%TD*%
%TO.C,MX38-3u1*%
X121444260Y-90487880D03*
D11*
X116364260Y-90487880D03*
X126524260Y-90487880D03*
D12*
X102394260Y-97472880D03*
X140494260Y-97472880D03*
D10*
X102394260Y-82232880D03*
X140494260Y-82232880D03*
%TD*%
D13*
%TO.C,PM1*%
X71914020Y-27702050D03*
X56674020Y-55642050D03*
X71914020Y-30242050D03*
X71914020Y-32782050D03*
X71914020Y-35322050D03*
X71914020Y-37862050D03*
X71914020Y-40402050D03*
X71914020Y-42942050D03*
X71914020Y-45482050D03*
X71914020Y-48022050D03*
X71914020Y-50562050D03*
X71914020Y-53102050D03*
X71914020Y-55642050D03*
X56674020Y-53102050D03*
X56674020Y-50562050D03*
X56674020Y-48022050D03*
X56674020Y-45482050D03*
X56674020Y-42942050D03*
X56674020Y-40402050D03*
X56674020Y-37862050D03*
X56674020Y-35322050D03*
X56674020Y-32782050D03*
X56674020Y-30242050D03*
D14*
X56674020Y-27702050D03*
%TD*%
D10*
%TO.C,MX41*%
X219075920Y-90487880D03*
D11*
X213995920Y-90487880D03*
X224155920Y-90487880D03*
%TD*%
D10*
%TO.C,MX40*%
X195263320Y-90487880D03*
D11*
X190183320Y-90487880D03*
X200343320Y-90487880D03*
%TD*%
D10*
%TO.C,MX39*%
X166688200Y-90487880D03*
D11*
X161608200Y-90487880D03*
X171768200Y-90487880D03*
%TD*%
D10*
%TO.C,MX38*%
X133350560Y-90487880D03*
D11*
X128270560Y-90487880D03*
X138430560Y-90487880D03*
%TD*%
D10*
%TO.C,MX37*%
X104775440Y-90487880D03*
D11*
X99695440Y-90487880D03*
X109855440Y-90487880D03*
%TD*%
D10*
%TO.C,MX36*%
X80962840Y-90487880D03*
D11*
X75882840Y-90487880D03*
X86042840Y-90487880D03*
%TD*%
D10*
%TO.C,MX35*%
X245269780Y-71437800D03*
D11*
X240189780Y-71437800D03*
X250349780Y-71437800D03*
%TD*%
D10*
%TO.C,MX34*%
X226219700Y-71437800D03*
D11*
X221139700Y-71437800D03*
X231299700Y-71437800D03*
%TD*%
D10*
%TO.C,MX33*%
X207169620Y-71437800D03*
D11*
X202089620Y-71437800D03*
X212249620Y-71437800D03*
%TD*%
D10*
%TO.C,MX32*%
X188119540Y-71437800D03*
D11*
X183039540Y-71437800D03*
X193199540Y-71437800D03*
%TD*%
D10*
%TO.C,MX31*%
X169069460Y-71437800D03*
D11*
X163989460Y-71437800D03*
X174149460Y-71437800D03*
%TD*%
D10*
%TO.C,MX30*%
X150019380Y-71437800D03*
D11*
X144939380Y-71437800D03*
X155099380Y-71437800D03*
%TD*%
D10*
%TO.C,MX29*%
X130969300Y-71437800D03*
D11*
X125889300Y-71437800D03*
X136049300Y-71437800D03*
%TD*%
D10*
%TO.C,MX28*%
X111919220Y-71437800D03*
D11*
X106839220Y-71437800D03*
X116999220Y-71437800D03*
%TD*%
D10*
%TO.C,MX27*%
X92869140Y-71437800D03*
D11*
X87789140Y-71437800D03*
X97949140Y-71437800D03*
%TD*%
D10*
%TO.C,MX26*%
X73819060Y-71437800D03*
D11*
X68739060Y-71437800D03*
X78899060Y-71437800D03*
%TD*%
D10*
%TO.C,MX25*%
X54768980Y-71437800D03*
D11*
X49688980Y-71437800D03*
X59848980Y-71437800D03*
%TD*%
D10*
%TO.C,MX24*%
X254794820Y-52387720D03*
D11*
X249714820Y-52387720D03*
X259874820Y-52387720D03*
%TD*%
D10*
%TO.C,MX23*%
X235744740Y-52387720D03*
D11*
X230664740Y-52387720D03*
X240824740Y-52387720D03*
%TD*%
D10*
%TO.C,MX22*%
X216694660Y-52387720D03*
D11*
X211614660Y-52387720D03*
X221774660Y-52387720D03*
%TD*%
D10*
%TO.C,MX21*%
X197644580Y-52387720D03*
D11*
X192564580Y-52387720D03*
X202724580Y-52387720D03*
%TD*%
D10*
%TO.C,MX20*%
X178594500Y-52387720D03*
D11*
X173514500Y-52387720D03*
X183674500Y-52387720D03*
%TD*%
D10*
%TO.C,MX19*%
X159544420Y-52387720D03*
D11*
X154464420Y-52387720D03*
X164624420Y-52387720D03*
%TD*%
D10*
%TO.C,MX18*%
X140494340Y-52387720D03*
D11*
X135414340Y-52387720D03*
X145574340Y-52387720D03*
%TD*%
D10*
%TO.C,MX17*%
X121444260Y-52387720D03*
D11*
X116364260Y-52387720D03*
X126524260Y-52387720D03*
%TD*%
D10*
%TO.C,MX16*%
X102394180Y-52387720D03*
D11*
X97314180Y-52387720D03*
X107474180Y-52387720D03*
%TD*%
D10*
%TO.C,MX15*%
X83344100Y-52387720D03*
D11*
X78264100Y-52387720D03*
X88424100Y-52387720D03*
%TD*%
D10*
%TO.C,MX14*%
X64294020Y-52387720D03*
D11*
X59214020Y-52387720D03*
X69374020Y-52387720D03*
%TD*%
D10*
%TO.C,MX13*%
X45243940Y-52387720D03*
D11*
X40163940Y-52387720D03*
X50323940Y-52387720D03*
%TD*%
D10*
%TO.C,MX12*%
X254794820Y-33337640D03*
D11*
X249714820Y-33337640D03*
X259874820Y-33337640D03*
%TD*%
D10*
%TO.C,MX11*%
X235744740Y-33337640D03*
D11*
X230664740Y-33337640D03*
X240824740Y-33337640D03*
%TD*%
D10*
%TO.C,MX10*%
X216694660Y-33337640D03*
D11*
X211614660Y-33337640D03*
X221774660Y-33337640D03*
%TD*%
D10*
%TO.C,MX9*%
X197644580Y-33337640D03*
D11*
X192564580Y-33337640D03*
X202724580Y-33337640D03*
%TD*%
D10*
%TO.C,MX8*%
X178594500Y-33337640D03*
D11*
X173514500Y-33337640D03*
X183674500Y-33337640D03*
%TD*%
D10*
%TO.C,MX7*%
X159544420Y-33337640D03*
D11*
X154464420Y-33337640D03*
X164624420Y-33337640D03*
%TD*%
D10*
%TO.C,MX6*%
X140494340Y-33337640D03*
D11*
X135414340Y-33337640D03*
X145574340Y-33337640D03*
%TD*%
D10*
%TO.C,MX5*%
X121444260Y-33337640D03*
D11*
X116364260Y-33337640D03*
X126524260Y-33337640D03*
%TD*%
D10*
%TO.C,MX4*%
X102394180Y-33337640D03*
D11*
X97314180Y-33337640D03*
X107474180Y-33337640D03*
%TD*%
D10*
%TO.C,MX3*%
X83344100Y-33337640D03*
D11*
X78264100Y-33337640D03*
X88424100Y-33337640D03*
%TD*%
D10*
%TO.C,MX2*%
X64294020Y-33337640D03*
D11*
X59214020Y-33337640D03*
X69374020Y-33337640D03*
%TD*%
D10*
%TO.C,MX1*%
X45243940Y-33337640D03*
D11*
X40163940Y-33337640D03*
X50323940Y-33337640D03*
%TD*%
D15*
%TO.C,KNOB1*%
X152519380Y-35862680D03*
X147519380Y-35862680D03*
D16*
X155619380Y-42862680D03*
X144419380Y-42862680D03*
D15*
X152519380Y-50362680D03*
X150019380Y-50362680D03*
D17*
X147519380Y-50362680D03*
%TD*%
D18*
%TO.C,D41*%
X227410330Y-93197250D03*
D19*
X227410330Y-85397250D03*
%TD*%
D18*
%TO.C,D40*%
X208360250Y-93197250D03*
D19*
X208360250Y-85397250D03*
%TD*%
D18*
%TO.C,D39*%
X205978990Y-96769140D03*
D19*
X205978990Y-88969140D03*
%TD*%
D18*
%TO.C,D38*%
X94059770Y-96769140D03*
D19*
X94059770Y-88969140D03*
%TD*%
D18*
%TO.C,D37*%
X91678510Y-93197250D03*
D19*
X91678510Y-85397250D03*
%TD*%
D18*
%TO.C,D36*%
X72628430Y-93197250D03*
D19*
X72628430Y-85397250D03*
%TD*%
D18*
%TO.C,D35*%
X236935370Y-74147170D03*
D19*
X236935370Y-66347170D03*
%TD*%
D18*
%TO.C,D34*%
X234554110Y-74147170D03*
D19*
X234554110Y-66347170D03*
%TD*%
D18*
%TO.C,D33*%
X216694660Y-74147170D03*
D19*
X216694660Y-66347170D03*
%TD*%
D18*
%TO.C,D32*%
X197644580Y-74147170D03*
D19*
X197644580Y-66347170D03*
%TD*%
D18*
%TO.C,D31*%
X178594500Y-74147170D03*
D19*
X178594500Y-66347170D03*
%TD*%
D18*
%TO.C,D30*%
X159544420Y-74147170D03*
D19*
X159544420Y-66347170D03*
%TD*%
D18*
%TO.C,D29*%
X140494340Y-74147170D03*
D19*
X140494340Y-66347170D03*
%TD*%
D18*
%TO.C,D28*%
X121444260Y-74147170D03*
D19*
X121444260Y-66347170D03*
%TD*%
D18*
%TO.C,D27*%
X102394180Y-74147170D03*
D19*
X102394180Y-66347170D03*
%TD*%
D18*
%TO.C,D26*%
X83344100Y-74147170D03*
D19*
X83344100Y-66347170D03*
%TD*%
D18*
%TO.C,D25*%
X46434570Y-74147170D03*
D19*
X46434570Y-66347170D03*
%TD*%
D18*
%TO.C,D24*%
X246460410Y-55097090D03*
D19*
X246460410Y-47297090D03*
%TD*%
D18*
%TO.C,D23*%
X244079150Y-55097090D03*
D19*
X244079150Y-47297090D03*
%TD*%
D18*
%TO.C,D22*%
X226219700Y-55097090D03*
D19*
X226219700Y-47297090D03*
%TD*%
D18*
%TO.C,D21*%
X207169620Y-55097090D03*
D19*
X207169620Y-47297090D03*
%TD*%
D18*
%TO.C,D20*%
X188119540Y-55097090D03*
D19*
X188119540Y-47297090D03*
%TD*%
D18*
%TO.C,D19*%
X169069460Y-55097090D03*
D19*
X169069460Y-47297090D03*
%TD*%
D18*
%TO.C,D18*%
X132159930Y-55097090D03*
D19*
X132159930Y-47297090D03*
%TD*%
D18*
%TO.C,D17*%
X129778670Y-55097090D03*
D19*
X129778670Y-47297090D03*
%TD*%
D18*
%TO.C,D16*%
X111919220Y-55097090D03*
D19*
X111919220Y-47297090D03*
%TD*%
D18*
%TO.C,D15*%
X92869140Y-55097090D03*
D19*
X92869140Y-47297090D03*
%TD*%
D18*
%TO.C,D14*%
X53578350Y-55097090D03*
D19*
X53578350Y-47297090D03*
%TD*%
D18*
%TO.C,D13*%
X36909530Y-55097090D03*
D19*
X36909530Y-47297090D03*
%TD*%
D18*
%TO.C,D12*%
X246460410Y-36047010D03*
D19*
X246460410Y-28247010D03*
%TD*%
D18*
%TO.C,D11*%
X244079150Y-36047010D03*
D19*
X244079150Y-28247010D03*
%TD*%
D18*
%TO.C,D10*%
X226219700Y-36047010D03*
D19*
X226219700Y-28247010D03*
%TD*%
D18*
%TO.C,D9*%
X207169620Y-36047010D03*
D19*
X207169620Y-28247010D03*
%TD*%
D18*
%TO.C,D8*%
X188119540Y-36047010D03*
D19*
X188119540Y-28247010D03*
%TD*%
D18*
%TO.C,D7*%
X169069460Y-36047010D03*
D19*
X169069460Y-28247010D03*
%TD*%
D18*
%TO.C,D6*%
X132159930Y-36047010D03*
D19*
X132159930Y-28247010D03*
%TD*%
D18*
%TO.C,D5*%
X129778670Y-36047010D03*
D19*
X129778670Y-28247010D03*
%TD*%
D18*
%TO.C,D4*%
X111919220Y-36047010D03*
D19*
X111919220Y-28247010D03*
%TD*%
D18*
%TO.C,D3*%
X92869140Y-36047010D03*
D19*
X92869140Y-28247010D03*
%TD*%
D18*
%TO.C,D2*%
X53578350Y-36047010D03*
D19*
X53578350Y-28247010D03*
%TD*%
D18*
%TO.C,D1*%
X36909530Y-36047010D03*
D19*
X36909530Y-28247010D03*
%TD*%
M02*
