%TF.GenerationSoftware,KiCad,Pcbnew,(5.1.9)-1*%
%TF.CreationDate,2021-08-20T11:44:51-07:00*%
%TF.ProjectId,Ingot,496e676f-742e-46b6-9963-61645f706362,rev?*%
%TF.SameCoordinates,Original*%
%TF.FileFunction,Profile,NP*%
%FSLAX46Y46*%
G04 Gerber Fmt 4.6, Leading zero omitted, Abs format (unit mm)*
G04 Created by KiCad (PCBNEW (5.1.9)-1) date 2021-08-20 11:44:51*
%MOMM*%
%LPD*%
G01*
G04 APERTURE LIST*
%TA.AperFunction,Profile*%
%ADD10C,0.050000*%
%TD*%
G04 APERTURE END LIST*
D10*
X71437800Y-100012920D02*
G75*
G02*
X69056540Y-97631660I0J2381260D01*
G01*
X261938600Y-23812600D02*
G75*
G02*
X264319860Y-26193860I0J-2381260D01*
G01*
X264319860Y-59531500D02*
G75*
G02*
X261938600Y-61912760I-2381260J0D01*
G01*
X254794820Y-78581580D02*
G75*
G02*
X252413560Y-80962840I-2381260J0D01*
G01*
X230982220Y-97631660D02*
G75*
G02*
X228600960Y-100012920I-2381260J0D01*
G01*
X47625200Y-80962840D02*
G75*
G02*
X45243940Y-78581580I0J2381260D01*
G01*
X38100160Y-61912760D02*
G75*
G02*
X35718900Y-59531500I0J2381260D01*
G01*
X35718900Y-26193860D02*
G75*
G02*
X38100160Y-23812600I2381260J0D01*
G01*
X153619380Y-42862680D02*
G75*
G03*
X153619380Y-42862680I-3600000J0D01*
G01*
X261938600Y-23812600D02*
X38100160Y-23812600D01*
X264319860Y-59531500D02*
X264319860Y-26193860D01*
X254794820Y-61912760D02*
X261938600Y-61912760D01*
X254794820Y-78581580D02*
X254794820Y-61912760D01*
X230982220Y-80962840D02*
X252413560Y-80962840D01*
X230982220Y-97631660D02*
X230982220Y-80962840D01*
X71437800Y-100012920D02*
X228600960Y-100012920D01*
X69056540Y-80962840D02*
X69056540Y-97631660D01*
X47625200Y-80962840D02*
X69056540Y-80962840D01*
X45243940Y-61912760D02*
X45243940Y-78581580D01*
X38100160Y-61912760D02*
X45243940Y-61912760D01*
X35718900Y-26193860D02*
X35718900Y-59531500D01*
M02*
