%TF.GenerationSoftware,KiCad,Pcbnew,(5.1.9)-1*%
%TF.CreationDate,2021-08-20T11:44:51-07:00*%
%TF.ProjectId,Ingot,496e676f-742e-46b6-9963-61645f706362,rev?*%
%TF.SameCoordinates,Original*%
%TF.FileFunction,Soldermask,Bot*%
%TF.FilePolarity,Negative*%
%FSLAX46Y46*%
G04 Gerber Fmt 4.6, Leading zero omitted, Abs format (unit mm)*
G04 Created by KiCad (PCBNEW (5.1.9)-1) date 2021-08-20 11:44:51*
%MOMM*%
%LPD*%
G01*
G04 APERTURE LIST*
%ADD10C,2.250000*%
%ADD11C,3.987800*%
%ADD12C,1.750000*%
%ADD13C,3.048000*%
%ADD14R,1.800000X1.100000*%
%ADD15C,1.752600*%
%ADD16R,1.752600X1.752600*%
%ADD17C,2.000000*%
%ADD18R,2.000000X3.200000*%
%ADD19R,2.000000X2.000000*%
%ADD20R,1.600000X1.600000*%
%ADD21C,1.600000*%
%ADD22R,1.200000X1.600000*%
G04 APERTURE END LIST*
D10*
%TO.C,MX40-1u1*%
X200184580Y-85407880D03*
D11*
X197644580Y-90487880D03*
D10*
X193834580Y-87947880D03*
D12*
X192564580Y-90487880D03*
X202724580Y-90487880D03*
%TD*%
D10*
%TO.C,MX39-2u1*%
X171609460Y-85407880D03*
D11*
X169069460Y-90487880D03*
D10*
X165259460Y-87947880D03*
D12*
X163989460Y-90487880D03*
X174149460Y-90487880D03*
D13*
X157163210Y-97472880D03*
X180975710Y-97472880D03*
D11*
X157163210Y-82232880D03*
X180975710Y-82232880D03*
%TD*%
D10*
%TO.C,MX38-2u1*%
X133509300Y-85407880D03*
D11*
X130969300Y-90487880D03*
D10*
X127159300Y-87947880D03*
D12*
X125889300Y-90487880D03*
X136049300Y-90487880D03*
D13*
X119063050Y-97472880D03*
X142875550Y-97472880D03*
D11*
X119063050Y-82232880D03*
X142875550Y-82232880D03*
%TD*%
D10*
%TO.C,MX37-1u1*%
X104934180Y-85407880D03*
D11*
X102394180Y-90487880D03*
D10*
X98584180Y-87947880D03*
D12*
X97314180Y-90487880D03*
X107474180Y-90487880D03*
%TD*%
D11*
%TO.C,MX38-6u1*%
X197644380Y-82232880D03*
X102394380Y-82232880D03*
D13*
X197644380Y-97472880D03*
X102394380Y-97472880D03*
D12*
X155099380Y-90487880D03*
X144939380Y-90487880D03*
D10*
X146209380Y-87947880D03*
D11*
X150019380Y-90487880D03*
D10*
X152559380Y-85407880D03*
%TD*%
%TO.C,MX39-3u1*%
X181134500Y-85407880D03*
X174784500Y-87947880D03*
D11*
X178594500Y-90487880D03*
D12*
X173514500Y-90487880D03*
X183674500Y-90487880D03*
D13*
X159544500Y-97472880D03*
X197644500Y-97472880D03*
D11*
X159544500Y-82232880D03*
X197644500Y-82232880D03*
%TD*%
D10*
%TO.C,MX38-3u1*%
X123984260Y-85407880D03*
X117634260Y-87947880D03*
D11*
X121444260Y-90487880D03*
D12*
X116364260Y-90487880D03*
X126524260Y-90487880D03*
D13*
X102394260Y-97472880D03*
X140494260Y-97472880D03*
D11*
X102394260Y-82232880D03*
X140494260Y-82232880D03*
%TD*%
D14*
%TO.C,RESET1*%
X95969140Y-41012680D03*
X89769140Y-41012680D03*
X95969140Y-44712680D03*
X89769140Y-44712680D03*
%TD*%
D15*
%TO.C,PM1*%
X71914020Y-27702050D03*
X56674020Y-55642050D03*
X71914020Y-30242050D03*
X71914020Y-32782050D03*
X71914020Y-35322050D03*
X71914020Y-37862050D03*
X71914020Y-40402050D03*
X71914020Y-42942050D03*
X71914020Y-45482050D03*
X71914020Y-48022050D03*
X71914020Y-50562050D03*
X71914020Y-53102050D03*
X71914020Y-55642050D03*
X56674020Y-53102050D03*
X56674020Y-50562050D03*
X56674020Y-48022050D03*
X56674020Y-45482050D03*
X56674020Y-42942050D03*
X56674020Y-40402050D03*
X56674020Y-37862050D03*
X56674020Y-35322050D03*
X56674020Y-32782050D03*
X56674020Y-30242050D03*
D16*
X56674020Y-27702050D03*
%TD*%
D10*
%TO.C,MX41*%
X221615920Y-85407880D03*
D11*
X219075920Y-90487880D03*
D10*
X215265920Y-87947880D03*
D12*
X213995920Y-90487880D03*
X224155920Y-90487880D03*
%TD*%
D10*
%TO.C,MX40*%
X197803320Y-85407880D03*
D11*
X195263320Y-90487880D03*
D10*
X191453320Y-87947880D03*
D12*
X190183320Y-90487880D03*
X200343320Y-90487880D03*
%TD*%
D10*
%TO.C,MX39*%
X169228200Y-85407880D03*
D11*
X166688200Y-90487880D03*
D10*
X162878200Y-87947880D03*
D12*
X161608200Y-90487880D03*
X171768200Y-90487880D03*
%TD*%
D10*
%TO.C,MX38*%
X135890560Y-85407880D03*
D11*
X133350560Y-90487880D03*
D10*
X129540560Y-87947880D03*
D12*
X128270560Y-90487880D03*
X138430560Y-90487880D03*
%TD*%
D10*
%TO.C,MX37*%
X107315440Y-85407880D03*
D11*
X104775440Y-90487880D03*
D10*
X100965440Y-87947880D03*
D12*
X99695440Y-90487880D03*
X109855440Y-90487880D03*
%TD*%
D10*
%TO.C,MX36*%
X83502840Y-85407880D03*
D11*
X80962840Y-90487880D03*
D10*
X77152840Y-87947880D03*
D12*
X75882840Y-90487880D03*
X86042840Y-90487880D03*
%TD*%
D10*
%TO.C,MX35*%
X247809780Y-66357800D03*
D11*
X245269780Y-71437800D03*
D10*
X241459780Y-68897800D03*
D12*
X240189780Y-71437800D03*
X250349780Y-71437800D03*
%TD*%
D10*
%TO.C,MX34*%
X228759700Y-66357800D03*
D11*
X226219700Y-71437800D03*
D10*
X222409700Y-68897800D03*
D12*
X221139700Y-71437800D03*
X231299700Y-71437800D03*
%TD*%
D10*
%TO.C,MX33*%
X209709620Y-66357800D03*
D11*
X207169620Y-71437800D03*
D10*
X203359620Y-68897800D03*
D12*
X202089620Y-71437800D03*
X212249620Y-71437800D03*
%TD*%
D10*
%TO.C,MX32*%
X190659540Y-66357800D03*
D11*
X188119540Y-71437800D03*
D10*
X184309540Y-68897800D03*
D12*
X183039540Y-71437800D03*
X193199540Y-71437800D03*
%TD*%
D10*
%TO.C,MX31*%
X171609460Y-66357800D03*
D11*
X169069460Y-71437800D03*
D10*
X165259460Y-68897800D03*
D12*
X163989460Y-71437800D03*
X174149460Y-71437800D03*
%TD*%
D10*
%TO.C,MX30*%
X152559380Y-66357800D03*
D11*
X150019380Y-71437800D03*
D10*
X146209380Y-68897800D03*
D12*
X144939380Y-71437800D03*
X155099380Y-71437800D03*
%TD*%
D10*
%TO.C,MX29*%
X133509300Y-66357800D03*
D11*
X130969300Y-71437800D03*
D10*
X127159300Y-68897800D03*
D12*
X125889300Y-71437800D03*
X136049300Y-71437800D03*
%TD*%
D10*
%TO.C,MX28*%
X114459220Y-66357800D03*
D11*
X111919220Y-71437800D03*
D10*
X108109220Y-68897800D03*
D12*
X106839220Y-71437800D03*
X116999220Y-71437800D03*
%TD*%
D10*
%TO.C,MX27*%
X95409140Y-66357800D03*
D11*
X92869140Y-71437800D03*
D10*
X89059140Y-68897800D03*
D12*
X87789140Y-71437800D03*
X97949140Y-71437800D03*
%TD*%
D10*
%TO.C,MX26*%
X76359060Y-66357800D03*
D11*
X73819060Y-71437800D03*
D10*
X70009060Y-68897800D03*
D12*
X68739060Y-71437800D03*
X78899060Y-71437800D03*
%TD*%
D10*
%TO.C,MX25*%
X57308980Y-66357800D03*
D11*
X54768980Y-71437800D03*
D10*
X50958980Y-68897800D03*
D12*
X49688980Y-71437800D03*
X59848980Y-71437800D03*
%TD*%
D10*
%TO.C,MX24*%
X257334820Y-47307720D03*
D11*
X254794820Y-52387720D03*
D10*
X250984820Y-49847720D03*
D12*
X249714820Y-52387720D03*
X259874820Y-52387720D03*
%TD*%
D10*
%TO.C,MX23*%
X238284740Y-47307720D03*
D11*
X235744740Y-52387720D03*
D10*
X231934740Y-49847720D03*
D12*
X230664740Y-52387720D03*
X240824740Y-52387720D03*
%TD*%
D10*
%TO.C,MX22*%
X219234660Y-47307720D03*
D11*
X216694660Y-52387720D03*
D10*
X212884660Y-49847720D03*
D12*
X211614660Y-52387720D03*
X221774660Y-52387720D03*
%TD*%
D10*
%TO.C,MX21*%
X200184580Y-47307720D03*
D11*
X197644580Y-52387720D03*
D10*
X193834580Y-49847720D03*
D12*
X192564580Y-52387720D03*
X202724580Y-52387720D03*
%TD*%
D10*
%TO.C,MX20*%
X181134500Y-47307720D03*
D11*
X178594500Y-52387720D03*
D10*
X174784500Y-49847720D03*
D12*
X173514500Y-52387720D03*
X183674500Y-52387720D03*
%TD*%
D10*
%TO.C,MX19*%
X162084420Y-47307720D03*
D11*
X159544420Y-52387720D03*
D10*
X155734420Y-49847720D03*
D12*
X154464420Y-52387720D03*
X164624420Y-52387720D03*
%TD*%
D10*
%TO.C,MX18*%
X143034340Y-47307720D03*
D11*
X140494340Y-52387720D03*
D10*
X136684340Y-49847720D03*
D12*
X135414340Y-52387720D03*
X145574340Y-52387720D03*
%TD*%
D10*
%TO.C,MX17*%
X123984260Y-47307720D03*
D11*
X121444260Y-52387720D03*
D10*
X117634260Y-49847720D03*
D12*
X116364260Y-52387720D03*
X126524260Y-52387720D03*
%TD*%
D10*
%TO.C,MX16*%
X104934180Y-47307720D03*
D11*
X102394180Y-52387720D03*
D10*
X98584180Y-49847720D03*
D12*
X97314180Y-52387720D03*
X107474180Y-52387720D03*
%TD*%
D10*
%TO.C,MX15*%
X85884100Y-47307720D03*
D11*
X83344100Y-52387720D03*
D10*
X79534100Y-49847720D03*
D12*
X78264100Y-52387720D03*
X88424100Y-52387720D03*
%TD*%
D10*
%TO.C,MX14*%
X66834020Y-47307720D03*
D11*
X64294020Y-52387720D03*
D10*
X60484020Y-49847720D03*
D12*
X59214020Y-52387720D03*
X69374020Y-52387720D03*
%TD*%
D10*
%TO.C,MX13*%
X47783940Y-47307720D03*
D11*
X45243940Y-52387720D03*
D10*
X41433940Y-49847720D03*
D12*
X40163940Y-52387720D03*
X50323940Y-52387720D03*
%TD*%
D10*
%TO.C,MX12*%
X257334820Y-28257640D03*
D11*
X254794820Y-33337640D03*
D10*
X250984820Y-30797640D03*
D12*
X249714820Y-33337640D03*
X259874820Y-33337640D03*
%TD*%
D10*
%TO.C,MX11*%
X238284740Y-28257640D03*
D11*
X235744740Y-33337640D03*
D10*
X231934740Y-30797640D03*
D12*
X230664740Y-33337640D03*
X240824740Y-33337640D03*
%TD*%
D10*
%TO.C,MX10*%
X219234660Y-28257640D03*
D11*
X216694660Y-33337640D03*
D10*
X212884660Y-30797640D03*
D12*
X211614660Y-33337640D03*
X221774660Y-33337640D03*
%TD*%
D10*
%TO.C,MX9*%
X200184580Y-28257640D03*
D11*
X197644580Y-33337640D03*
D10*
X193834580Y-30797640D03*
D12*
X192564580Y-33337640D03*
X202724580Y-33337640D03*
%TD*%
D10*
%TO.C,MX8*%
X181134500Y-28257640D03*
D11*
X178594500Y-33337640D03*
D10*
X174784500Y-30797640D03*
D12*
X173514500Y-33337640D03*
X183674500Y-33337640D03*
%TD*%
D10*
%TO.C,MX7*%
X162084420Y-28257640D03*
D11*
X159544420Y-33337640D03*
D10*
X155734420Y-30797640D03*
D12*
X154464420Y-33337640D03*
X164624420Y-33337640D03*
%TD*%
D10*
%TO.C,MX6*%
X143034340Y-28257640D03*
D11*
X140494340Y-33337640D03*
D10*
X136684340Y-30797640D03*
D12*
X135414340Y-33337640D03*
X145574340Y-33337640D03*
%TD*%
D10*
%TO.C,MX5*%
X123984260Y-28257640D03*
D11*
X121444260Y-33337640D03*
D10*
X117634260Y-30797640D03*
D12*
X116364260Y-33337640D03*
X126524260Y-33337640D03*
%TD*%
D10*
%TO.C,MX4*%
X104934180Y-28257640D03*
D11*
X102394180Y-33337640D03*
D10*
X98584180Y-30797640D03*
D12*
X97314180Y-33337640D03*
X107474180Y-33337640D03*
%TD*%
D10*
%TO.C,MX3*%
X85884100Y-28257640D03*
D11*
X83344100Y-33337640D03*
D10*
X79534100Y-30797640D03*
D12*
X78264100Y-33337640D03*
X88424100Y-33337640D03*
%TD*%
D10*
%TO.C,MX2*%
X66834020Y-28257640D03*
D11*
X64294020Y-33337640D03*
D10*
X60484020Y-30797640D03*
D12*
X59214020Y-33337640D03*
X69374020Y-33337640D03*
%TD*%
D10*
%TO.C,MX1*%
X47783940Y-28257640D03*
D11*
X45243940Y-33337640D03*
D10*
X41433940Y-30797640D03*
D12*
X40163940Y-33337640D03*
X50323940Y-33337640D03*
%TD*%
D17*
%TO.C,KNOB1*%
X152519380Y-35862680D03*
X147519380Y-35862680D03*
D18*
X155619380Y-42862680D03*
X144419380Y-42862680D03*
D17*
X152519380Y-50362680D03*
X150019380Y-50362680D03*
D19*
X147519380Y-50362680D03*
%TD*%
D20*
%TO.C,D41*%
X227410330Y-93197250D03*
D21*
X227410330Y-85397250D03*
D22*
X227410330Y-90697250D03*
X227410330Y-87897250D03*
%TD*%
D20*
%TO.C,D40*%
X208360250Y-93197250D03*
D21*
X208360250Y-85397250D03*
D22*
X208360250Y-90697250D03*
X208360250Y-87897250D03*
%TD*%
D20*
%TO.C,D39*%
X205978990Y-96769140D03*
D21*
X205978990Y-88969140D03*
D22*
X205978990Y-94269140D03*
X205978990Y-91469140D03*
%TD*%
D20*
%TO.C,D38*%
X94059770Y-96769140D03*
D21*
X94059770Y-88969140D03*
D22*
X94059770Y-94269140D03*
X94059770Y-91469140D03*
%TD*%
D20*
%TO.C,D37*%
X91678510Y-93197250D03*
D21*
X91678510Y-85397250D03*
D22*
X91678510Y-90697250D03*
X91678510Y-87897250D03*
%TD*%
D20*
%TO.C,D36*%
X72628430Y-93197250D03*
D21*
X72628430Y-85397250D03*
D22*
X72628430Y-90697250D03*
X72628430Y-87897250D03*
%TD*%
D20*
%TO.C,D35*%
X236935370Y-74147170D03*
D21*
X236935370Y-66347170D03*
D22*
X236935370Y-71647170D03*
X236935370Y-68847170D03*
%TD*%
D20*
%TO.C,D34*%
X234554110Y-74147170D03*
D21*
X234554110Y-66347170D03*
D22*
X234554110Y-71647170D03*
X234554110Y-68847170D03*
%TD*%
D20*
%TO.C,D33*%
X216694660Y-74147170D03*
D21*
X216694660Y-66347170D03*
D22*
X216694660Y-71647170D03*
X216694660Y-68847170D03*
%TD*%
D20*
%TO.C,D32*%
X197644580Y-74147170D03*
D21*
X197644580Y-66347170D03*
D22*
X197644580Y-71647170D03*
X197644580Y-68847170D03*
%TD*%
D20*
%TO.C,D31*%
X178594500Y-74147170D03*
D21*
X178594500Y-66347170D03*
D22*
X178594500Y-71647170D03*
X178594500Y-68847170D03*
%TD*%
D20*
%TO.C,D30*%
X159544420Y-74147170D03*
D21*
X159544420Y-66347170D03*
D22*
X159544420Y-71647170D03*
X159544420Y-68847170D03*
%TD*%
D20*
%TO.C,D29*%
X140494340Y-74147170D03*
D21*
X140494340Y-66347170D03*
D22*
X140494340Y-71647170D03*
X140494340Y-68847170D03*
%TD*%
D20*
%TO.C,D28*%
X121444260Y-74147170D03*
D21*
X121444260Y-66347170D03*
D22*
X121444260Y-71647170D03*
X121444260Y-68847170D03*
%TD*%
D20*
%TO.C,D27*%
X102394180Y-74147170D03*
D21*
X102394180Y-66347170D03*
D22*
X102394180Y-71647170D03*
X102394180Y-68847170D03*
%TD*%
D20*
%TO.C,D26*%
X83344100Y-74147170D03*
D21*
X83344100Y-66347170D03*
D22*
X83344100Y-71647170D03*
X83344100Y-68847170D03*
%TD*%
D20*
%TO.C,D25*%
X46434570Y-74147170D03*
D21*
X46434570Y-66347170D03*
D22*
X46434570Y-71647170D03*
X46434570Y-68847170D03*
%TD*%
D20*
%TO.C,D24*%
X246460410Y-55097090D03*
D21*
X246460410Y-47297090D03*
D22*
X246460410Y-52597090D03*
X246460410Y-49797090D03*
%TD*%
D20*
%TO.C,D23*%
X244079150Y-55097090D03*
D21*
X244079150Y-47297090D03*
D22*
X244079150Y-52597090D03*
X244079150Y-49797090D03*
%TD*%
D20*
%TO.C,D22*%
X226219700Y-55097090D03*
D21*
X226219700Y-47297090D03*
D22*
X226219700Y-52597090D03*
X226219700Y-49797090D03*
%TD*%
D20*
%TO.C,D21*%
X207169620Y-55097090D03*
D21*
X207169620Y-47297090D03*
D22*
X207169620Y-52597090D03*
X207169620Y-49797090D03*
%TD*%
D20*
%TO.C,D20*%
X188119540Y-55097090D03*
D21*
X188119540Y-47297090D03*
D22*
X188119540Y-52597090D03*
X188119540Y-49797090D03*
%TD*%
D20*
%TO.C,D19*%
X169069460Y-55097090D03*
D21*
X169069460Y-47297090D03*
D22*
X169069460Y-52597090D03*
X169069460Y-49797090D03*
%TD*%
D20*
%TO.C,D18*%
X132159930Y-55097090D03*
D21*
X132159930Y-47297090D03*
D22*
X132159930Y-52597090D03*
X132159930Y-49797090D03*
%TD*%
D20*
%TO.C,D17*%
X129778670Y-55097090D03*
D21*
X129778670Y-47297090D03*
D22*
X129778670Y-52597090D03*
X129778670Y-49797090D03*
%TD*%
D20*
%TO.C,D16*%
X111919220Y-55097090D03*
D21*
X111919220Y-47297090D03*
D22*
X111919220Y-52597090D03*
X111919220Y-49797090D03*
%TD*%
D20*
%TO.C,D15*%
X92869140Y-55097090D03*
D21*
X92869140Y-47297090D03*
D22*
X92869140Y-52597090D03*
X92869140Y-49797090D03*
%TD*%
D20*
%TO.C,D14*%
X53578350Y-55097090D03*
D21*
X53578350Y-47297090D03*
D22*
X53578350Y-52597090D03*
X53578350Y-49797090D03*
%TD*%
D20*
%TO.C,D13*%
X36909530Y-55097090D03*
D21*
X36909530Y-47297090D03*
D22*
X36909530Y-52597090D03*
X36909530Y-49797090D03*
%TD*%
D20*
%TO.C,D12*%
X246460410Y-36047010D03*
D21*
X246460410Y-28247010D03*
D22*
X246460410Y-33547010D03*
X246460410Y-30747010D03*
%TD*%
D20*
%TO.C,D11*%
X244079150Y-36047010D03*
D21*
X244079150Y-28247010D03*
D22*
X244079150Y-33547010D03*
X244079150Y-30747010D03*
%TD*%
D20*
%TO.C,D10*%
X226219700Y-36047010D03*
D21*
X226219700Y-28247010D03*
D22*
X226219700Y-33547010D03*
X226219700Y-30747010D03*
%TD*%
D20*
%TO.C,D9*%
X207169620Y-36047010D03*
D21*
X207169620Y-28247010D03*
D22*
X207169620Y-33547010D03*
X207169620Y-30747010D03*
%TD*%
D20*
%TO.C,D8*%
X188119540Y-36047010D03*
D21*
X188119540Y-28247010D03*
D22*
X188119540Y-33547010D03*
X188119540Y-30747010D03*
%TD*%
D20*
%TO.C,D7*%
X169069460Y-36047010D03*
D21*
X169069460Y-28247010D03*
D22*
X169069460Y-33547010D03*
X169069460Y-30747010D03*
%TD*%
D20*
%TO.C,D6*%
X132159930Y-36047010D03*
D21*
X132159930Y-28247010D03*
D22*
X132159930Y-33547010D03*
X132159930Y-30747010D03*
%TD*%
D20*
%TO.C,D5*%
X129778670Y-36047010D03*
D21*
X129778670Y-28247010D03*
D22*
X129778670Y-33547010D03*
X129778670Y-30747010D03*
%TD*%
D20*
%TO.C,D4*%
X111919220Y-36047010D03*
D21*
X111919220Y-28247010D03*
D22*
X111919220Y-33547010D03*
X111919220Y-30747010D03*
%TD*%
D20*
%TO.C,D3*%
X92869140Y-36047010D03*
D21*
X92869140Y-28247010D03*
D22*
X92869140Y-33547010D03*
X92869140Y-30747010D03*
%TD*%
D20*
%TO.C,D2*%
X53578350Y-36047010D03*
D21*
X53578350Y-28247010D03*
D22*
X53578350Y-33547010D03*
X53578350Y-30747010D03*
%TD*%
D20*
%TO.C,D1*%
X36909530Y-36047010D03*
D21*
X36909530Y-28247010D03*
D22*
X36909530Y-33547010D03*
X36909530Y-30747010D03*
%TD*%
M02*
